<svg xmlns="http://www.w3.org/2000/svg" viewBox="0 0 26.5 28.99"><defs><style>.cls-1{fill:#fff;}</style></defs><title>card</title><g id="Layer_2" data-name="Layer 2"><g id="banner"><g id="Shape_4" data-name="Shape 4"><path class="cls-1" d="M6.55,23.5a2.64,2.64,0,0,0-2,.81,2.72,2.72,0,0,0-.8,2,2.63,2.63,0,0,0,.8,1.93,2.67,2.67,0,0,0,2,.8,2.71,2.71,0,0,0,2.72-2.73,2.71,2.71,0,0,0-.79-2A2.6,2.6,0,0,0,6.55,23.5Zm9.5,0a2.66,2.66,0,0,0-2,.81,2.71,2.71,0,0,0-.79,2,2.62,2.62,0,0,0,.79,1.93,2.68,2.68,0,0,0,2,.8,2.73,2.73,0,0,0,2.73-2.73,2.72,2.72,0,0,0-.8-2A2.6,2.6,0,0,0,16.05,23.5ZM26.37,1a1.74,1.74,0,0,0-.81-.8A1.71,1.71,0,0,0,24.42.06a1.43,1.43,0,0,0-.94.87L21.2,5.85H1.89C1,5.85.42,6,.2,6.38A1.65,1.65,0,0,0,.07,7.67L3.14,19.14a3.62,3.62,0,0,0,.62,1.22,1.42,1.42,0,0,0,1.2.56h13.1a1.27,1.27,0,0,0,1.13-.55,7.17,7.17,0,0,0,.69-1.23l1.28-3.52c.38-1,.81-2.19,1.27-3.48s.94-2.56,1.42-3.81.94-2.42,1.37-3.5.79-2,1.09-2.61A1.37,1.37,0,0,0,26.37,1Z"/></g></g></g></svg>