<svg xmlns="http://www.w3.org/2000/svg" viewBox="0 0 77.03 70.24"><defs><style>.cls-1{fill:#fff;}</style></defs><title>shop</title><g id="Layer_2" data-name="Layer 2"><g id="sec3"><g id="Shape_14" data-name="Shape 14"><path class="cls-1" d="M72.51,29.45h-68A4.52,4.52,0,0,0,0,34v2.26a4.47,4.47,0,0,0,4.18,4.46l7.15,25c2.27,4.54,4.54,4.54,6.79,4.54H58.91c2.27,0,4.53,0,6.79-4.54l7.16-25A4.47,4.47,0,0,0,77,36.25V34A4.51,4.51,0,0,0,72.51,29.45Zm-49,34H22.37a5.87,5.87,0,0,1-5.52-4.31L13.66,45a3.42,3.42,0,0,1,3.62-4.25h1.13A5.83,5.83,0,0,1,23.93,45l3.19,14.09A3.46,3.46,0,0,1,23.51,63.43Zm19.54-4.52a4.53,4.53,0,0,1-9.06,0V45.31a4.53,4.53,0,1,1,9.06,0ZM63.37,45,60.18,59.12a5.87,5.87,0,0,1-5.52,4.31H53.52a3.45,3.45,0,0,1-3.6-4.31L53.1,45a5.84,5.84,0,0,1,5.52-4.25h1.15A3.41,3.41,0,0,1,63.37,45ZM35.19,10.83a5.61,5.61,0,0,0,2.19.5,5.67,5.67,0,0,0,2.21-.5L52.11,24.92h9.07L43.05,4.52H42.9a5.63,5.63,0,0,0-11,0h-.14L13.6,24.92h9.06Z"/></g></g></g></svg>