<svg xmlns="http://www.w3.org/2000/svg" viewBox="0 0 55.35 73.23"><defs><style>.cls-1{fill:#fff;}</style></defs><title>lock</title><g id="Layer_2" data-name="Layer 2"><g id="sec3"><g id="Shape_15" data-name="Shape 15"><path class="cls-1" d="M53.39,30.65a6.44,6.44,0,0,0-4.73-2h-.29v-7a22.28,22.28,0,0,0-1.58-8.37,21.33,21.33,0,0,0-4.4-6.93A20.72,20.72,0,0,0,35.8,1.73,19.47,19.47,0,0,0,27.63,0a19.27,19.27,0,0,0-8.09,1.73A20.94,20.94,0,0,0,13,6.41a21.5,21.5,0,0,0-4.4,6.93A22.47,22.47,0,0,0,7,21.71v7H6.69a6.46,6.46,0,0,0-4.74,2A6.43,6.43,0,0,0,0,35.38V66.54a6.43,6.43,0,0,0,2,4.73,6.45,6.45,0,0,0,4.74,2h42a6.69,6.69,0,0,0,6.69-6.69V35.38A6.4,6.4,0,0,0,53.39,30.65ZM33.94,63.77H22l1.91-15a5.88,5.88,0,0,1-2.29-4.87,6.35,6.35,0,0,1,6.31-6.31,6.13,6.13,0,0,1,4.53,1.86,6,6,0,0,1,1.87,4.45A5.86,5.86,0,0,1,32,48.76ZM14.81,28.68v-7a14.58,14.58,0,0,1,1-5.55,14.37,14.37,0,0,1,2.78-4.44A12.28,12.28,0,0,1,22.7,8.8a12.08,12.08,0,0,1,9.85,0,12.8,12.8,0,0,1,4.11,2.92,13.93,13.93,0,0,1,2.82,4.44,14.58,14.58,0,0,1,1.05,5.55l.1,7Z"/></g></g></g></svg>